<?xml version="1.0" standalone="no"?>
<svg viewBox="0 0 320 877" version="1.1" xmlns="http://www.w3.org/2000/svg">

    <style type="text/css">
        
            svg * {
                fill: #333;
                font-family: Arial, Helvetica, sans-serif;
                font-size: 27px;
                text-anchor: middle
            }

            .grid * {
                stroke: #333;
                fill: none;
                stroke-width: 2pt
            }
        
            .header {
                font-weight: bold;
                font-size: 34px
            }
        
            .indicators .h {
                visibility: hidden
            }
        
            .chart path {
                stroke: #333;
                fill: none;
                stroke-width: 6pt            
            }
        
            .chart circle {
                stroke: none;
                fill: #333;
            }
    </style>

    <g class="header">
        <text x="48" y="32">D</text>
        <text x="124" y="32">I</text>
        <text x="199" y="32">S</text>
        <text x="274" y="32">C</text>
    </g>
    
    <g class="grid">
        <path d="M9 39 l 300 0 l 0 831 l -300 0 Z"></path>    
        <path d="M87 39 l 0 831 Z"></path>    
        <path d="M159 39 l 0 831 Z"></path>
        <path d="M237 39 l 0 831 Z"></path>
        <line stroke-dasharray="8,8" x1="9" x2="309" y1="440" y2="440"></line>
    </g>

    <g class="indicators">

        <!-- D -->
        <text x="48" y="55" class="D h">24</text>
        <text x="48" y="55" class="D h">23</text>
        <text x="48" y="55" class="D h">22</text>
        <text x="48" y="55" class="D h">21</text>
        <text x="48" y="64" class="D">20</text>
        <text x="48" y="70" class="D h">19</text>
        <text x="48" y="81" class="D h">18</text>
        <text x="48" y="89" class="D h">17</text>
        <text x="48" y="96" class="D">16</text>
        <text x="48" y="126" class="D">15</text>
        <text x="48" y="157" class="D">14</text>
        <text x="48" y="187" class="D">13</text>
        <text x="48" y="217" class="D">12</text>
        <text x="48" y="249" class="D">11</text>
        <text x="48" y="280" class="D">10</text>
        <text x="48" y="310" class="D">9</text>
        <text x="48" y="371" class="D">8</text>
        <text x="48" y="432" class="D">7</text>
        <text x="48" y="495" class="D">6</text>
        <text x="48" y="558" class="D">5</text>
        <text x="48" y="618" class="D">4</text>
        <text x="48" y="650" class="D">3</text>
        <text x="48" y="711" class="D">2</text>
        <text x="48" y="802" class="D">1</text>
        <text x="48" y="863" class="D">0</text>

        <!-- I -->
        <text x="124" y="55" class="I h">24</text>
        <text x="124" y="55" class="I h">23</text>
        <text x="124" y="55" class="I h">22</text>
        <text x="124" y="55" class="I h">21</text>
        <text x="124" y="55" class="I h">20</text>
        <text x="124" y="55" class="I h">19</text>
        <text x="124" y="55" class="I h">18</text>
        <text x="124" y="64" class="I">17</text>
        <text x="124" y="70" class="I h">16</text>
        <text x="124" y="74" class="I h">15</text>
        <text x="124" y="84" class="I h">14</text>
        <text x="124" y="94" class="I h">13</text>
        <text x="124" y="104" class="I h">12</text>
        <text x="124" y="114" class="I h">11</text>
        <text x="124" y="126" class="I">10</text>
        <text x="124" y="157" class="I">9</text>
        <text x="124" y="187" class="I">8</text>
        <text x="124" y="249" class="I">7</text>
        <text x="124" y="340" class="I">6</text>
        <text x="124" y="403" class="I">5</text>
        <text x="124" y="465" class="I">4</text>
        <text x="124" y="558" class="I">3</text>
        <text x="124" y="650" class="I">2</text>
        <text x="124" y="772" class="I">1</text>
        <text x="124" y="863" class="I">0</text>

        <!-- S -->
        <text x="199" y="55" class="S h">24</text>
        <text x="199" y="55" class="S h">23</text>
        <text x="199" y="55" class="S h">22</text>
        <text x="199" y="55" class="S h">21</text>
        <text x="199" y="55" class="S h">20</text>
        <text x="199" y="64" class="S">19</text>
        <text x="199" y="80" class="S h">18</text>
        <text x="199" y="80" class="S h">17</text>
        <text x="199" y="80" class="S h">16</text>
        <text x="199" y="80" class="S h">15</text>
        <text x="199" y="80" class="S h">14</text>
        <text x="199" y="80" class="S h">13</text>
        <text x="199" y="96" class="S">12</text>
        <text x="199" y="126" class="S">11</text>
        <text x="199" y="187" class="S">10</text>
        <text x="199" y="249" class="S">9</text>
        <text x="199" y="280" class="S">8</text>
        <text x="199" y="340" class="S">7</text>
        <text x="199" y="403" class="S">6</text>
        <text x="199" y="432" class="S">5</text>
        <text x="199" y="495" class="S">4</text>
        <text x="199" y="558" class="S">3</text>
        <text x="199" y="650" class="S">2</text>
        <text x="199" y="711" class="S">1</text>
        <text x="199" y="802" class="S">0</text>

        <!-- C -->
        <text x="274" y="55" class="C h">24</text>
        <text x="274" y="55" class="C h">23</text>
        <text x="274" y="55" class="C h">22</text>
        <text x="274" y="55" class="C h">21</text>
        <text x="274" y="55" class="C h">20</text>
        <text x="274" y="55" class="C h">19</text>
        <text x="274" y="55" class="C h">18</text>
        <text x="274" y="55" class="C h">17</text>
        <text x="274" y="55" class="C h">16</text>
        <text x="274" y="64" class="C">15</text>
        <text x="274" y="80" class="C h">14</text>
        <text x="274" y="80" class="C h">13</text>
        <text x="274" y="80" class="C h">12</text>
        <text x="274" y="80" class="C h">11</text>
        <text x="274" y="80" class="C h">10</text>
        <text x="274" y="96" class="C">9</text>
        <text x="274" y="126" class="C">8</text>
        <text x="274" y="157" class="C">7</text>
        <text x="274" y="249" class="C">6</text>
        <text x="274" y="340" class="C">5</text>
        <text x="274" y="432" class="C">4</text>
        <text x="274" y="526" class="C">3</text>
        <text x="274" y="618" class="C">2</text>
        <text x="274" y="772" class="C">1</text>
        <text x="274" y="863" class="C">0</text>
        
    </g>
    
    <g class="chart">
        <path d="M48 608L124 239L199 422L274 608"/>
        <circle cx="48" cy="608" r="14"/>
        <circle cx="124" cy="239" r="14"/>
        <circle cx="199" cy="422" r="14"/>
        <circle cx="274" cy="608" r="14"/>
    </g>
</svg>

