<?xml version="1.0" standalone="no"?>
<svg width="687" height="1123px" version="1.1" xmlns="http://www.w3.org/2000/svg"
     xmlns:xlink="http://www.w3.org/1999/xlink">
    <desc>DiSC Graph I</desc>

    <style type="text/css">
        <![CDATA[

            .bg {
                visibility: hidden;
            }

            .boxes {
                fill: #768DA5;
                visibility: visible;
            }

            .dim {
                fill: #768DA5;
                visibility: visible;
            }

            text {
                font-family: sans-serif;
                text-anchor: middle;
                font-size: 27px;
                font-weight: bold;
            }

			text.label {
				fill: white;
			}

			text.label.segment {
				font-size: 43px;
			}

			text.label.intensity {
				font-size: 22px;
			}

			text.label.header {
				font-size: 44px;
			}

			text.label.disc {
				font-size: 64px;
			}

			text.header.intensity {
			    fill: #768DA5;
				font-size: 13px;
			}

			text.header.segment {
			    fill: white;
				font-size: 11.5px;
			}
        ]]>
    </style>

    <image class="bg" width="687" height="1123" xlink:href="bundles/applicationmain/images/DiSC/graph1.png"/>

    <!--#768DA5;#546590;124-->

    <g>
        <g class="boxes">
            <!--GRAPH X BAR-->
            <path
                    d="
    M 33 27
    l 614 0
    l 0 47
    l -614 0
    Z"/>

            <!--INTENSITY BAR-->
            <path d="
    M 33 173
    l 0 798
    l 40 0
    l 0 -798
    Z"/>

            <!--SEGMENT BAR-->
            <path d="
    M 600 173
    l 0 798
    l 37 0
    l 0 -798
    Z"/>
            <!--SEGMENT BADGE-->
            <path d="
    M 586 128
    l 60 0
    l 0 30
    l -30 16
    l -30 -16

    Z"/>

            <!--SEGMENT NUMBERS BAR-->
            <path
                    d="
    M 33 980
    l 614 0
    l 0 57
    l -614 0
    Z"/>

            <!--CLASSICAL PATTERNS BAR-->
            <path
                    d="
    M 33 1044
    l 614 0
    l 0 57
    l -614 0
    Z"/>


        </g>

        <g class="dim">
            <!--D BADGE-->
            <path d="
    M 82 88
    l 88 0
    l 0 52
    l -43 22
    l -45 -22
    Z"/>
            <!--D LINE-->
            <path d="
    M 124 160
    l 0 811
    l 5 0
    l 0 -811
    Z"/>
            <text x="167" y="195">27</text>
            <text x="167" y="250">12</text>
            <text x="167" y="280">11</text>
            <text x="167" y="308">10</text>
            <text x="167" y="330">9</text>
            <text x="167" y="363">8</text>
            <text x="167" y="424">7</text>
            <text x="167" y="448">6</text>
            <text x="167" y="540">5</text>
            <text x="167" y="598">4</text>
            <text x="167" y="655">3</text>
            <text x="167" y="733">2</text>
            <text x="167" y="842">1</text>
            <text x="167" y="918">0</text>

            <!--i BADGE-->
            <path d="
    M 206 88
    l 88 0
    l 0 52
    l -43 22
    l -45 -22
    Z"/>
            <!--i LINE-->
            <path d="
    M 248 160
    l 0 811
    l 5 0
    l 0 -811
    Z"/>
            <text x="292" y="195">28</text>
            <text x="292" y="252">12</text>
            <text x="292" y="280">11</text>
            <text x="292" y="321">10</text>
            <text x="292" y="367">9</text>
            <text x="292" y="425">8</text>
            <text x="292" y="540">7</text>
            <text x="292" y="580">6</text>
            <text x="292" y="656">5</text>
            <text x="292" y="738">4</text>
            <text x="292" y="831">3</text>
            <text x="292" y="888">2</text>
            <text x="292" y="940">1</text>
            <text x="292" y="969">0</text>

            <!--S BADGE-->
            <path d="
    M 330 88
    l 88 0
    l 0 52
    l -43 22
    l -45 -22
    Z"/>
            <!--S LINE-->
            <path d="
    M 372 160
    l 0 811
    l 5 0
    l 0 -811
    Z"/>
            <text x="419" y="195">26</text>
            <text x="419" y="245">14</text>
            <text x="419" y="279">13</text>
            <text x="419" y="329">12</text>
            <text x="419" y="391">11</text>
            <text x="419" y="449">10</text>
            <text x="419" y="505">9</text>
            <text x="419" y="564">8</text>
            <text x="419" y="623">7</text>
            <text x="419" y="693">6</text>
            <text x="419" y="729">5</text>
            <text x="419" y="808">4</text>
            <text x="419" y="881">3</text>
            <text x="419" y="909">2</text>
            <text x="419" y="938">1</text>
            <text x="419" y="966">0</text>

            <!--C BADGE-->
            <path d="
    M 454 88
    l 88 0
    l 0 52
    l -43 22
    l -45 -22
    Z"/>
            <!--C LINE-->
            <path d="
    M 496 160
    l 0 811
    l 5 0
    l 0 -811
    Z"/>
            <text x="538" y="195">24</text>
            <text x="539" y="234">12</text>
            <text x="539" y="251">11</text>
            <text x="539" y="308">10</text>
            <text x="539" y="331">9</text>
            <text x="539" y="396">8</text>
            <text x="539" y="454">7</text>
            <text x="539" y="541">6</text>
            <text x="539" y="627">5</text>
            <text x="539" y="725">4</text>
            <text x="539" y="799">3</text>
            <text x="539" y="885">2</text>
            <text x="539" y="940">1</text>
            <text x="539" y="970">0</text>
        </g>
    </g>

    <g class="label">

    <text class="label segment" x="620" y="242">7</text>
    <text class="label segment" x="620" y="355">6</text>
    <text class="label segment" x="620" y="471">5</text>
    <text class="label segment" x="620" y="584">4</text>
    <text class="label segment" x="620" y="700">3</text>
    <text class="label segment" x="620" y="824">2</text>
    <text class="label segment" x="620" y="934">1</text>

    <text class="label intensity" x="52" y="195">28</text>
    <text class="label intensity" x="52" y="223">27</text>
    <text class="label intensity" x="52" y="252">26</text>
    <text class="label intensity" x="52" y="280">25</text>
    <text class="label intensity" x="52" y="309">24</text>
    <text class="label intensity" x="52" y="338">23</text>
    <text class="label intensity" x="52" y="366">22</text>
    <text class="label intensity" x="52" y="395">21</text>
    <text class="label intensity" x="52" y="423">20</text>
    <text class="label intensity" x="52" y="452">19</text>
    <text class="label intensity" x="52" y="481">18</text>
    <text class="label intensity" x="52" y="509">17</text>
    <text class="label intensity" x="52" y="538">16</text>
    <text class="label intensity" x="52" y="566">15</text>
    <text class="label intensity" x="52" y="595">14</text>
    <text class="label intensity" x="52" y="624">13</text>
    <text class="label intensity" x="52" y="652">12</text>
    <text class="label intensity" x="52" y="681">11</text>
    <text class="label intensity" x="52" y="709">10</text>
    <text class="label intensity" x="52" y="738">9</text>
    <text class="label intensity" x="52" y="767">8</text>
    <text class="label intensity" x="52" y="795">7</text>
    <text class="label intensity" x="52" y="824">6</text>
    <text class="label intensity" x="52" y="852">5</text>
    <text class="label intensity" x="52" y="881">4</text>
    <text class="label intensity" x="52" y="910">3</text>
    <text class="label intensity" x="52" y="938">2</text>
    <text class="label intensity" x="52" y="967">1</text>

    <text class="label disc" x="129" y="143">D</text>
    <text class="label disc" x="249" y="143">i</text>
    <text class="label disc" x="374" y="143">S</text>
    <text class="label disc" x="498" y="143">C</text>

    <text class="label header" x="344" y="65">GRAPH I</text>

    <text transform="scale(1,1.5)" class="header intensity" x="54" y="109">INTENSITY</text>
    <text transform="scale(1,1.5)" class="header segment" x="616" y="101">SEGMENT</text>

    </g>
</svg>