<?xml version="1.0" standalone="no"?>
<svg viewBox="0 0 320 877" version="1.1" xmlns="http://www.w3.org/2000/svg"
     xmlns:xlink="http://www.w3.org/1999/xlink">
    <desc>DiSC Graph I</desc>

    <style type="text/css">
        <![CDATA[
            
            text {
                font-family: Arial, Helvetica, sans-serif;
                text-anchor: middle;
            }
        
            .indicators text {
                fill: green;
                font-weight: normal;
                font-size: 27px;
            }
        
            .indicators text.hidden {
                fill: blue;
            }
                    
            .header {
                fill: red;
                font-weight: bold;
                font-size: 34px;
            }
            
            line.line,
            path.line,
            path.frame {
                stroke: red;
                fill: none;
                stroke-width: 2pt;
            }
        ]]>
    </style>

    <image style="visibility:visible" width="320" height="877" xlink:href="disc/most.png"/>

    <path class="frame" d="M9 39 l 300 0 l 0 831 l -300 0 Z"/>    
    <path class="line" d="M87 39 l 0 831 Z"/>    
    <path class="line" d="M159 39 l 0 831 Z"/>
    <path class="line" d="M237 39 l 0 831 Z"/>
    <line class="line" stroke-dasharray="8,8" x1="9" x2="309" y1="440" y2="440" />

    <text class="header" x="48" y="32">D</text>
    <text class="header" x="124" y="32">I</text>
    <text class="header" x="198" y="32">S</text>
    <text class="header" x="273" y="32">C</text>

    <g class="indicators">
        <text x="48"  y="55" class="hidden D">24</text>
        <text x="48"  y="55" class="hidden D">23</text>
        <text x="48"  y="55" class="hidden D">22</text>
        <text x="48"  y="55" class="hidden D">21</text>
        <text x="48"  y="64" class="D">20</text>
        
        <text x="48"  y="70" class="hidden D">19</text>
        <text x="48"  y="81" class="hidden D">18</text>
        <text x="48"  y="89" class="hidden D">17</text>
        
        <text x="48"  y="96" class="D">16</text>
        <text x="48"  y="126" class="D">15</text>
        <text x="48"  y="157" class="D">14</text>
        
        <text x="48"  y="1004" class="D">13</text>
        <text x="48"  y="1004" class="D">12</text>
        <text x="48"  y="1004" class="D">11</text>
        <text x="48"  y="1004" class="D">10</text>
        <text x="48"  y="1004" class="D">9</text>
        <text x="48"  y="1004" class="D">8</text>
        <text x="48"  y="1004" class="D">7</text>
        <text x="48"  y="1004" class="D">6</text>
        <text x="48"  y="1004" class="D">5</text>
        <text x="48"  y="1004" class="D">4</text>
        <text x="48"  y="1004" class="D">3</text>
        <text x="48"  y="1004" class="D">2</text>
        <text x="48"  y="1004" class="D">1</text>
        
        
        <text x="48"  y="863" class="D">0</text>
























        <text x="124" y="64" class="I">17</text>
        <text x="124"  y="863" class="I">0</text>

        <text x="198" y="64" class="S">19</text>
        <text x="198"  y="802" class="S">0</text>

        <text x="273" y="64" class="C">15</text>
        <text x="273"  y="863" class="C">0</text>
        
    </g>
</svg>